<svg xmlns="http://www.w3.org/2000/svg" xmlns:xlink="http://www.w3.org/1999/xlink" width="144" zoomAndPan="magnify" viewBox="0 0 108 125.999998" height="168" preserveAspectRatio="xMidYMid meet" version="1.0"><defs><g/><clipPath id="92bc2c29f6"><path d="M 15.5625 23.535156 L 92.0625 23.535156 L 92.0625 123.285156 L 15.5625 123.285156 Z M 15.5625 23.535156 " clip-rule="nonzero"/></clipPath></defs><g clip-path="url(#92bc2c29f6)"><path fill="#000000" d="M 88.121094 34.472656 L 71.703125 34.472656 L 63.046875 25.867188 C 62.910156 25.726562 62.773438 25.621094 62.632812 25.511719 C 61.265625 24.375 59.128906 23.558594 57.4375 23.558594 L 19.867188 23.558594 C 17.5 23.558594 15.5625 25.496094 15.5625 27.863281 L 15.5625 108.0625 C 15.5625 110.429688 17.5 112.367188 19.867188 112.367188 L 24.785156 112.367188 L 24.785156 118.976562 C 24.785156 121.34375 26.722656 123.28125 29.089844 123.28125 L 88.121094 123.28125 C 90.488281 123.28125 92.425781 121.34375 92.425781 118.976562 L 92.425781 38.761719 C 92.425781 36.394531 90.488281 34.472656 88.121094 34.472656 Z M 61.742188 29.492188 L 77.207031 44.851562 L 62.542969 44.851562 C 62.09375 44.851562 61.726562 44.480469 61.726562 44.035156 L 61.726562 29.492188 Z M 19.050781 108.0625 L 19.050781 27.863281 C 19.050781 27.417969 19.421875 27.050781 19.867188 27.050781 L 57.4375 27.050781 C 57.699219 27.050781 57.992188 27.09375 58.296875 27.171875 C 58.269531 27.386719 58.253906 27.617188 58.253906 27.847656 L 58.253906 44.019531 C 58.253906 46.386719 60.1875 48.324219 62.558594 48.324219 L 78.898438 48.324219 C 79.144531 48.324219 79.375 48.308594 79.574219 48.277344 C 79.652344 48.585938 79.699219 48.878906 79.699219 49.140625 L 79.699219 108.046875 C 79.699219 108.492188 79.328125 108.863281 78.882812 108.863281 L 19.867188 108.863281 C 19.421875 108.878906 19.050781 108.507812 19.050781 108.0625 Z M 88.9375 118.976562 C 88.9375 119.421875 88.566406 119.792969 88.121094 119.792969 L 29.089844 119.792969 C 28.644531 119.792969 28.277344 119.421875 28.277344 118.976562 L 28.277344 112.367188 L 78.898438 112.367188 C 81.265625 112.367188 83.203125 110.429688 83.203125 108.0625 L 83.203125 49.15625 C 83.203125 47.464844 82.386719 45.359375 81.25 43.988281 C 81.140625 43.851562 81.019531 43.714844 80.867188 43.558594 L 75.222656 37.964844 L 88.121094 37.964844 C 88.566406 37.964844 88.9375 38.332031 88.9375 38.777344 Z M 69.921875 61.375 L 28.84375 61.375 C 28.015625 61.375 27.351562 60.699219 27.351562 59.886719 C 27.351562 59.070312 28.03125 58.394531 28.84375 58.394531 L 69.921875 58.394531 C 70.75 58.394531 71.410156 59.070312 71.410156 59.886719 C 71.410156 60.699219 70.75 61.375 69.921875 61.375 Z M 69.921875 72.289062 L 28.84375 72.289062 C 28.015625 72.289062 27.351562 71.613281 27.351562 70.800781 C 27.351562 69.984375 28.03125 69.308594 28.84375 69.308594 L 69.921875 69.308594 C 70.75 69.308594 71.410156 69.984375 71.410156 70.800781 C 71.410156 71.613281 70.75 72.289062 69.921875 72.289062 Z M 69.921875 83.191406 L 28.84375 83.191406 C 28.015625 83.191406 27.351562 82.511719 27.351562 81.699219 C 27.351562 80.882812 28.03125 80.207031 28.84375 80.207031 L 69.921875 80.207031 C 70.75 80.207031 71.410156 80.882812 71.410156 81.699219 C 71.410156 82.511719 70.75 83.191406 69.921875 83.191406 Z M 46.460938 94.105469 L 28.84375 94.105469 C 28.015625 94.105469 27.351562 93.429688 27.351562 92.613281 C 27.351562 91.785156 28.03125 91.121094 28.84375 91.121094 L 46.460938 91.121094 C 47.292969 91.121094 47.953125 91.796875 47.953125 92.613281 C 47.953125 93.429688 47.292969 94.105469 46.460938 94.105469 Z M 46.460938 94.105469 " fill-opacity="1" fill-rule="nonzero"/></g><g fill="#000000" fill-opacity="1"><g transform="translate(20.259375, 19.333856)"><g><path d="M 6.875 0.1875 C 5.707031 0.1875 4.660156 -0.078125 3.734375 -0.609375 C 2.816406 -1.148438 2.09375 -1.921875 1.5625 -2.921875 C 1.03125 -3.921875 0.765625 -5.128906 0.765625 -6.546875 C 0.765625 -7.960938 1.03125 -9.171875 1.5625 -10.171875 C 2.09375 -11.179688 2.820312 -11.953125 3.75 -12.484375 C 4.675781 -13.015625 5.71875 -13.28125 6.875 -13.28125 C 7.625 -13.28125 8.320312 -13.171875 8.96875 -12.953125 C 9.613281 -12.742188 10.1875 -12.4375 10.6875 -12.03125 C 11.1875 -11.632812 11.59375 -11.144531 11.90625 -10.5625 C 12.226562 -9.976562 12.441406 -9.320312 12.546875 -8.59375 L 9.828125 -8.59375 C 9.765625 -8.945312 9.644531 -9.269531 9.46875 -9.5625 C 9.300781 -9.851562 9.09375 -10.097656 8.84375 -10.296875 C 8.59375 -10.492188 8.304688 -10.644531 7.984375 -10.75 C 7.660156 -10.851562 7.304688 -10.90625 6.921875 -10.90625 C 6.234375 -10.90625 5.628906 -10.726562 5.109375 -10.375 C 4.585938 -10.03125 4.1875 -9.535156 3.90625 -8.890625 C 3.625 -8.242188 3.484375 -7.460938 3.484375 -6.546875 C 3.484375 -5.609375 3.625 -4.816406 3.90625 -4.171875 C 4.195312 -3.523438 4.597656 -3.035156 5.109375 -2.703125 C 5.628906 -2.367188 6.234375 -2.203125 6.921875 -2.203125 C 7.296875 -2.203125 7.644531 -2.253906 7.96875 -2.359375 C 8.289062 -2.460938 8.578125 -2.613281 8.828125 -2.8125 C 9.085938 -3.007812 9.300781 -3.25 9.46875 -3.53125 C 9.644531 -3.820312 9.765625 -4.148438 9.828125 -4.515625 L 12.546875 -4.515625 C 12.460938 -3.867188 12.273438 -3.265625 11.984375 -2.703125 C 11.691406 -2.140625 11.300781 -1.640625 10.8125 -1.203125 C 10.320312 -0.765625 9.742188 -0.421875 9.078125 -0.171875 C 8.421875 0.0664062 7.6875 0.1875 6.875 0.1875 Z M 6.875 0.1875 "/></g></g><g transform="translate(33.522069, 19.333856)"><g><path d="M 3.84375 0.1875 C 3.21875 0.1875 2.660156 0.078125 2.171875 -0.140625 C 1.679688 -0.359375 1.296875 -0.679688 1.015625 -1.109375 C 0.734375 -1.546875 0.59375 -2.082031 0.59375 -2.71875 C 0.59375 -3.257812 0.691406 -3.710938 0.890625 -4.078125 C 1.085938 -4.441406 1.359375 -4.734375 1.703125 -4.953125 C 2.046875 -5.179688 2.4375 -5.351562 2.875 -5.46875 C 3.320312 -5.582031 3.789062 -5.660156 4.28125 -5.703125 C 4.851562 -5.765625 5.3125 -5.816406 5.65625 -5.859375 C 6 -5.910156 6.25 -5.988281 6.40625 -6.09375 C 6.5625 -6.207031 6.640625 -6.367188 6.640625 -6.578125 L 6.640625 -6.625 C 6.640625 -6.882812 6.578125 -7.109375 6.453125 -7.296875 C 6.335938 -7.492188 6.164062 -7.644531 5.9375 -7.75 C 5.707031 -7.851562 5.429688 -7.90625 5.109375 -7.90625 C 4.773438 -7.90625 4.484375 -7.851562 4.234375 -7.75 C 3.984375 -7.644531 3.78125 -7.503906 3.625 -7.328125 C 3.46875 -7.160156 3.359375 -6.96875 3.296875 -6.75 L 0.875 -7.0625 C 1.007812 -7.644531 1.265625 -8.144531 1.640625 -8.5625 C 2.023438 -8.976562 2.515625 -9.296875 3.109375 -9.515625 C 3.703125 -9.734375 4.378906 -9.84375 5.140625 -9.84375 C 5.679688 -9.84375 6.195312 -9.773438 6.6875 -9.640625 C 7.1875 -9.515625 7.628906 -9.316406 8.015625 -9.046875 C 8.410156 -8.785156 8.71875 -8.445312 8.9375 -8.03125 C 9.15625 -7.613281 9.265625 -7.117188 9.265625 -6.546875 L 9.265625 0 L 6.765625 0 L 6.765625 -1.359375 L 6.6875 -1.359375 C 6.519531 -1.046875 6.304688 -0.773438 6.046875 -0.546875 C 5.785156 -0.316406 5.472656 -0.132812 5.109375 0 C 4.753906 0.125 4.332031 0.1875 3.84375 0.1875 Z M 4.578125 -1.65625 C 4.992188 -1.65625 5.359375 -1.734375 5.671875 -1.890625 C 5.984375 -2.054688 6.222656 -2.273438 6.390625 -2.546875 C 6.566406 -2.828125 6.65625 -3.140625 6.65625 -3.484375 L 6.65625 -4.515625 C 6.582031 -4.472656 6.46875 -4.425781 6.3125 -4.375 C 6.164062 -4.332031 6 -4.289062 5.8125 -4.25 C 5.625 -4.21875 5.4375 -4.1875 5.25 -4.15625 C 5.0625 -4.125 4.890625 -4.097656 4.734375 -4.078125 C 4.410156 -4.035156 4.125 -3.960938 3.875 -3.859375 C 3.632812 -3.753906 3.445312 -3.613281 3.3125 -3.4375 C 3.175781 -3.269531 3.109375 -3.054688 3.109375 -2.796875 C 3.109375 -2.546875 3.171875 -2.335938 3.296875 -2.171875 C 3.421875 -2.003906 3.59375 -1.875 3.8125 -1.78125 C 4.039062 -1.695312 4.296875 -1.65625 4.578125 -1.65625 Z M 4.578125 -1.65625 "/></g></g><g transform="translate(43.858006, 19.333856)"><g><path d="M 4.96875 0.203125 C 4.175781 0.203125 3.472656 0.0859375 2.859375 -0.140625 C 2.242188 -0.378906 1.742188 -0.71875 1.359375 -1.15625 C 0.984375 -1.59375 0.742188 -2.117188 0.640625 -2.734375 L 3.109375 -3.0625 C 3.222656 -2.625 3.4375 -2.289062 3.75 -2.0625 C 4.070312 -1.832031 4.492188 -1.71875 5.015625 -1.71875 C 5.515625 -1.71875 5.90625 -1.8125 6.1875 -2 C 6.476562 -2.1875 6.625 -2.425781 6.625 -2.71875 C 6.625 -2.976562 6.519531 -3.1875 6.3125 -3.34375 C 6.101562 -3.507812 5.789062 -3.632812 5.375 -3.71875 L 3.703125 -4.046875 C 2.765625 -4.242188 2.0625 -4.570312 1.59375 -5.03125 C 1.125 -5.5 0.890625 -6.097656 0.890625 -6.828125 C 0.890625 -7.441406 1.054688 -7.972656 1.390625 -8.421875 C 1.734375 -8.878906 2.207031 -9.226562 2.8125 -9.46875 C 3.425781 -9.71875 4.144531 -9.84375 4.96875 -9.84375 C 5.75 -9.84375 6.425781 -9.726562 7 -9.5 C 7.570312 -9.28125 8.03125 -8.96875 8.375 -8.5625 C 8.726562 -8.15625 8.953125 -7.671875 9.046875 -7.109375 L 6.703125 -6.78125 C 6.617188 -7.125 6.4375 -7.40625 6.15625 -7.625 C 5.875 -7.851562 5.492188 -7.96875 5.015625 -7.96875 C 4.578125 -7.96875 4.210938 -7.875 3.921875 -7.6875 C 3.640625 -7.5 3.5 -7.257812 3.5 -6.96875 C 3.5 -6.71875 3.597656 -6.507812 3.796875 -6.34375 C 3.992188 -6.175781 4.3125 -6.050781 4.75 -5.96875 L 6.5 -5.609375 C 7.445312 -5.421875 8.148438 -5.109375 8.609375 -4.671875 C 9.078125 -4.242188 9.3125 -3.679688 9.3125 -2.984375 C 9.3125 -2.347656 9.125 -1.789062 8.75 -1.3125 C 8.382812 -0.832031 7.875 -0.457031 7.21875 -0.1875 C 6.5625 0.0703125 5.8125 0.203125 4.96875 0.203125 Z M 4.96875 0.203125 "/></g></g><g transform="translate(53.780857, 19.333856)"><g><path d="M 5.46875 0.1875 C 4.476562 0.1875 3.625 -0.015625 2.90625 -0.421875 C 2.195312 -0.828125 1.644531 -1.40625 1.25 -2.15625 C 0.863281 -2.90625 0.671875 -3.789062 0.671875 -4.8125 C 0.671875 -5.8125 0.863281 -6.6875 1.25 -7.4375 C 1.632812 -8.1875 2.175781 -8.773438 2.875 -9.203125 C 3.582031 -9.628906 4.410156 -9.84375 5.359375 -9.84375 C 6.003906 -9.84375 6.601562 -9.738281 7.15625 -9.53125 C 7.71875 -9.320312 8.207031 -9.007812 8.625 -8.59375 C 9.039062 -8.175781 9.363281 -7.660156 9.59375 -7.046875 C 9.832031 -6.429688 9.953125 -5.71875 9.953125 -4.90625 L 9.953125 -4.171875 L 1.71875 -4.171875 L 1.71875 -5.828125 L 8.671875 -5.828125 L 7.453125 -5.390625 C 7.453125 -5.898438 7.375 -6.335938 7.21875 -6.703125 C 7.0625 -7.078125 6.828125 -7.363281 6.515625 -7.5625 C 6.210938 -7.757812 5.832031 -7.859375 5.375 -7.859375 C 4.925781 -7.859375 4.539062 -7.753906 4.21875 -7.546875 C 3.90625 -7.347656 3.664062 -7.066406 3.5 -6.703125 C 3.332031 -6.347656 3.25 -5.941406 3.25 -5.484375 L 3.25 -4.328125 C 3.25 -3.773438 3.34375 -3.304688 3.53125 -2.921875 C 3.71875 -2.546875 3.984375 -2.257812 4.328125 -2.0625 C 4.671875 -1.875 5.070312 -1.78125 5.53125 -1.78125 C 5.84375 -1.78125 6.125 -1.820312 6.375 -1.90625 C 6.632812 -2 6.851562 -2.128906 7.03125 -2.296875 C 7.207031 -2.472656 7.34375 -2.6875 7.4375 -2.9375 L 9.8125 -2.609375 C 9.664062 -2.046875 9.394531 -1.550781 9 -1.125 C 8.601562 -0.707031 8.109375 -0.382812 7.515625 -0.15625 C 6.921875 0.0703125 6.238281 0.1875 5.46875 0.1875 Z M 5.46875 0.1875 "/></g></g><g transform="translate(64.362888, 19.333856)"><g/></g><g transform="translate(68.537692, 19.333856)"><g><path d="M 6.015625 0 L 8.171875 -13.09375 L 10.15625 -13.09375 L 8 0 Z M 0.15625 -3.28125 L 0.484375 -5.265625 L 10.671875 -5.265625 L 10.34375 -3.28125 Z M 1.421875 0 L 3.5625 -13.09375 L 5.5625 -13.09375 L 3.40625 0 Z M 0.90625 -7.828125 L 1.234375 -9.8125 L 11.421875 -9.8125 L 11.09375 -7.828125 Z M 0.90625 -7.828125 "/></g></g><g transform="translate(80.121676, 19.333856)"><g><path d="M 6.453125 -13.09375 L 6.453125 0 L 3.796875 0 L 3.796875 -10.703125 L 3.734375 -10.703125 L 0.71875 -8.625 L 0.71875 -11.0625 L 3.6875 -13.09375 Z M 6.453125 -13.09375 "/></g></g></g></svg>